<?xml version="1.0" encoding="UTF-8"?>
<svg xmlns="http://www.w3.org/2000/svg" xmlns:xlink="http://www.w3.org/1999/xlink" width="150px" height="150px" viewBox="0 0 150 150" version="1.1">
<g id="surface1">
<path style=" stroke:none;fill-rule:evenodd;fill:rgb(100%,100%,100%);fill-opacity:1;" d="M 3.765625 48.527344 C 3.046875 48.921875 3.066406 48.683594 3.0625 59.003906 L 3.054688 68.632812 L 3.871094 69.449219 L 16.695312 69.414062 L 29.515625 69.375 L 30.359375 68.984375 C 34.359375 67.132812 34.390625 61.351562 30.414062 59.460938 L 29.652344 59.097656 L 22.222656 59.054688 C 18.132812 59.035156 14.648438 59.054688 14.476562 59.09375 C 13.707031 59.285156 13.609375 59.765625 13.609375 63.4375 L 13.609375 66.804688 L 5.835938 66.804688 L 5.835938 51.101562 L 30.484375 51.183594 L 31.707031 51.5625 C 44.429688 55.542969 44.277344 73.203125 31.488281 76.90625 L 30.210938 77.273438 L 17.222656 77.320312 C 8.070312 77.351562 4.121094 77.414062 3.847656 77.523438 C 3.035156 77.847656 3.054688 77.585938 3.054688 87.988281 C 3.054688 97.785156 3.0625 97.882812 3.601562 98.296875 C 3.882812 98.515625 15.429688 98.546875 15.839844 98.328125 C 16.445312 98.003906 16.453125 97.917969 16.527344 90.179688 L 16.597656 82.785156 L 22.339844 90.351562 C 25.5 94.515625 28.214844 98.011719 28.375 98.125 C 28.757812 98.390625 42.667969 98.441406 43.242188 98.179688 C 43.867188 97.894531 44.125 97.046875 43.78125 96.382812 C 43.644531 96.117188 41.757812 93.589844 39.585938 90.765625 C 37.417969 87.9375 35.140625 84.96875 34.53125 84.164062 C 33.917969 83.367188 32.90625 82.042969 32.273438 81.230469 L 31.132812 79.753906 L 31.992188 79.585938 C 40.703125 77.882812 46.210938 67.710938 43.1875 58.921875 C 41.316406 53.492188 36.390625 49.390625 30.695312 48.53125 C 28.820312 48.25 4.273438 48.246094 3.765625 48.527344 M 51.988281 48.46875 C 51.125 48.828125 51.183594 47.492188 51.140625 67.855469 C 51.101562 88.207031 51.0625 87.234375 51.945312 87.671875 C 52.535156 87.96875 72 88.046875 74.796875 87.765625 C 85.480469 86.6875 91.265625 74.429688 85.328125 65.460938 C 83.460938 62.648438 80.058594 60.214844 76.875 59.417969 C 75.324219 59.03125 63.179688 58.839844 62.519531 59.195312 C 61.789062 59.582031 61.804688 59.320312 61.804688 72.703125 L 61.804688 85.140625 L 54.027344 85.140625 L 54.027344 51.109375 L 64.546875 51.113281 C 75.476562 51.117188 76.007812 51.140625 78.539062 51.726562 C 86.253906 53.507812 92.945312 60.1875 94.84375 67.984375 C 97.578125 79.257812 91.503906 90.554688 80.53125 94.582031 C 77.335938 95.753906 76.308594 95.828125 63.429688 95.832031 C 51.875 95.835938 51.84375 95.835938 51.429688 96.375 C 51.109375 96.796875 51.210938 97.753906 51.617188 98.132812 L 51.984375 98.472656 L 63.664062 98.46875 C 79.125 98.46875 80.792969 98.210938 86.109375 95.023438 C 106.042969 83.0625 100.414062 52.75 77.5 48.648438 C 76.121094 48.398438 52.546875 48.234375 51.988281 48.46875 M 95.386719 48.734375 C 94.390625 49.625 92.871094 47.042969 108.632812 71.195312 L 112.085938 76.484375 L 112.085938 97.742188 L 112.816406 98.472656 L 124.683594 98.472656 L 125.03125 98.125 C 125.554688 97.601562 125.554688 97.632812 125.554688 87.164062 L 125.554688 77.414062 L 134.652344 63.820312 C 142.460938 52.148438 143.75 50.152344 143.75 49.726562 C 143.75 48.328125 142.039062 47.851562 141.140625 49 C 140.914062 49.28125 136.664062 55.625 131.6875 63.09375 L 122.640625 76.671875 L 122.640625 95.835938 L 114.859375 95.835938 L 114.859375 76.398438 L 116.339844 74.132812 C 126.632812 58.414062 131.664062 50.683594 131.863281 50.304688 C 132.570312 48.933594 130.804688 47.695312 129.679688 48.765625 C 129.40625 49.023438 127.046875 52.515625 124.4375 56.527344 C 121.820312 60.539062 119.546875 64.023438 119.375 64.273438 L 119.0625 64.734375 L 113.8125 56.800781 C 110.921875 52.4375 108.40625 48.75 108.21875 48.601562 C 107.894531 48.34375 107.59375 48.335938 101.859375 48.335938 L 95.835938 48.335938 L 95.386719 48.734375 M 107.902344 53.046875 C 108.597656 54.113281 111.015625 57.773438 113.273438 61.171875 L 117.378906 67.363281 L 115.546875 70.175781 C 114.539062 71.71875 113.640625 73.0625 113.554688 73.15625 C 113.429688 73.289062 113.140625 72.941406 112.289062 71.632812 C 111.683594 70.695312 110.617188 69.054688 109.914062 67.984375 C 106.066406 62.09375 99.027344 51.21875 99.027344 51.171875 C 99.027344 51.136719 100.742188 51.109375 102.832031 51.109375 L 106.636719 51.109375 L 107.902344 53.046875 M 29.328125 62.070312 C 31.28125 63.40625 30.773438 66.160156 28.484375 66.652344 C 28.023438 66.75 25.734375 66.804688 22.148438 66.804688 L 16.527344 66.804688 L 16.527344 61.65625 L 28.839844 61.734375 L 29.328125 62.070312 M 76.292969 62.132812 C 79.265625 63.03125 81.867188 65.082031 83.320312 67.65625 C 87.21875 74.59375 83.273438 83.277344 75.46875 84.929688 C 74.738281 85.085938 73.367188 85.132812 69.617188 85.136719 L 64.722656 85.140625 L 64.722656 61.636719 L 69.898438 61.699219 C 75.015625 61.761719 75.082031 61.765625 76.292969 62.132812 M 13.609375 87.984375 L 13.609375 95.835938 L 5.835938 95.835938 L 5.835938 80.140625 L 13.609375 80.140625 L 13.609375 87.984375 M 29.257812 81.976562 C 30.03125 82.992188 32.671875 86.4375 35.125 89.632812 C 37.578125 92.828125 39.585938 95.46875 39.585938 95.5 C 39.585938 95.53125 37.40625 95.554688 34.742188 95.554688 L 29.898438 95.554688 L 25.546875 89.828125 C 23.148438 86.675781 20.515625 83.207031 19.683594 82.117188 L 18.179688 80.140625 L 27.851562 80.140625 L 29.257812 81.976562 "/>
</g>
</svg>
